# xmcd
#
# Track frame offsets:
#	150
#	17782
#	33922
#	51675
#	65612
#	79940
#	94587
#	113530
#	129207
#	148510
#	169200
#	171340
#	189252
#
# Disc length: 2754 seconds
#
# Revision: 1
# Processed by: cddbd v1.4PL0 Copyright (c) Steve Scherf et al.
# Submitted via: audiograbber 1.80.04
#
DISCID=ac0ac00d
DTITLE=Cayouche - Roule, Roule
DYEAR=1900
DGENRE=
TTITLE0=La Reine Du Bingo
TTITLE1=Pourquoi S'en Aller
TTITLE2=C'est Ca Mon Acadie
TTITLE3=Les Tymeux
TTITLE4=La Reponse
TTITLE5=Sanatorium
TTITLE6=Le Portrait De Mon Pere
TTITLE7=Tu M'as Flushe
TTITLE8=Vin De Maison
TTITLE9=Roule, Roule
TTITLE10=JFU
TTITLE11=La Vie
TTITLE12=Infame Destin
EXTD=
EXTT0=
EXTT1=
EXTT2=
EXTT3=
EXTT4=
EXTT5=
EXTT6=
EXTT7=
EXTT8=
EXTT9=
EXTT10=
EXTT11=
EXTT12=
PLAYORDER=
